<svg xmlns="http://www.w3.org/2000/svg" viewBox="0 0 800 500" role="group" aria-label="Peripheral blood placeholder scene">
  <rect width="800" height="500" fill="#F6D6D6"/>
  <rect x="80" y="70" width="120" height="70" rx="30" fill="#C0392B" opacity="0.6"/>
  <rect x="560" y="120" width="120" height="70" rx="30" fill="#C0392B" opacity="0.6"/>
  <rect x="140" y="340" width="120" height="70" rx="30" fill="#C0392B" opacity="0.6"/>
  <rect x="600" y="350" width="120" height="70" rx="30" fill="#C0392B" opacity="0.6"/>
  <rect id="neutrophil" x="330" y="190" width="140" height="120" rx="20" fill="#E4572E" stroke="#1F2933" stroke-width="2" stroke-linejoin="round"/>
  <text x="400" y="257" font-size="20" text-anchor="middle" fill="#1F2933" font-family="system-ui, sans-serif" pointer-events="none">Neutrophil</text>
  <rect id="eosinophil" x="70" y="185" width="130" height="115" rx="20" fill="#E4572E" stroke="#1F2933" stroke-width="2" stroke-linejoin="round"/>
  <text x="135" y="249" font-size="20" text-anchor="middle" fill="#1F2933" font-family="system-ui, sans-serif" pointer-events="none">Eosinophil</text>
  <rect id="basophil" x="320" y="40" width="125" height="110" rx="20" fill="#E4572E" stroke="#1F2933" stroke-width="2" stroke-linejoin="round"/>
  <text x="382" y="101" font-size="20" text-anchor="middle" fill="#1F2933" font-family="system-ui, sans-serif" pointer-events="none">Basophil</text>
  <rect id="monocyte" x="560" y="205" width="170" height="140" rx="20" fill="#E4572E" stroke="#1F2933" stroke-width="2" stroke-linejoin="round"/>
  <text x="645" y="282" font-size="20" text-anchor="middle" fill="#1F2933" font-family="system-ui, sans-serif" pointer-events="none">Monocyte</text>
  <rect id="platelet" x="355" y="375" width="90" height="50" rx="25" fill="#8A8F98" stroke="#1F2933" stroke-width="2" stroke-linejoin="round"/>
  <text x="400" y="450" font-size="18" text-anchor="middle" fill="#1F2933" font-family="system-ui, sans-serif" pointer-events="none">Platelet</text>
  <rect id="naive-cd4-t" x="205" y="55" width="105" height="80" rx="40" fill="#2F6DB5" stroke="#1F2933" stroke-width="2" stroke-linejoin="round"/>
  <text x="257" y="101" font-size="16" font-weight="600" text-anchor="middle" fill="#FFFFFF" font-family="system-ui, sans-serif" pointer-events="none">Naive CD4 T</text>
  <rect id="cytotoxic-cd8-t" x="470" y="20" width="135" height="80" rx="40" fill="#2F6DB5" stroke="#1F2933" stroke-width="2" stroke-linejoin="round"/>
  <text x="537" y="66" font-size="16" font-weight="600" text-anchor="middle" fill="#FFFFFF" font-family="system-ui, sans-serif" pointer-events="none">Cytotoxic CD8 T</text>
  <rect id="nk-cell" x="15" y="325" width="115" height="90" rx="40" fill="#8E5BB5" stroke="#1F2933" stroke-width="2" stroke-linejoin="round"/>
  <text x="72" y="376" font-size="16" font-weight="600" text-anchor="middle" fill="#FFFFFF" font-family="system-ui, sans-serif" pointer-events="none">NK cell</text>
  <rect id="naive-b" x="480" y="385" width="100" height="80" rx="40" fill="#3E9B63" stroke="#1F2933" stroke-width="2" stroke-linejoin="round"/>
  <text x="530" y="431" font-size="16" font-weight="600" text-anchor="middle" fill="#FFFFFF" font-family="system-ui, sans-serif" pointer-events="none">Naive B</text>
</svg>
